<mxfile host="app.diagrams.net" agent="Mozilla/5.0 (Windows NT 10.0; Win64; x64) AppleWebKit/537.36 (KHTML, like Gecko) Chrome/127.0.0.0 Safari/537.36 OPR/113.0.0.0" version="24.8.3">
  <diagram name="Page-1" id="GJ58YFMMa5e9dHJfy1o0">
    <mxGraphModel dx="349" dy="760" grid="1" gridSize="10" guides="1" tooltips="1" connect="1" arrows="1" fold="1" page="1" pageScale="1" pageWidth="850" pageHeight="1100" math="0" shadow="0">
      <root>
        <mxCell id="0" />
        <mxCell id="1" parent="0" />
        <mxCell id="w-iIbQp6WT943V2XhcAD-1" value="docente" style="whiteSpace=wrap;html=1;align=center;" vertex="1" parent="1">
          <mxGeometry x="40" y="120" width="100" height="40" as="geometry" />
        </mxCell>
        <mxCell id="w-iIbQp6WT943V2XhcAD-2" value="computadora" style="whiteSpace=wrap;html=1;align=center;" vertex="1" parent="1">
          <mxGeometry x="40" y="170" width="100" height="40" as="geometry" />
        </mxCell>
        <mxCell id="w-iIbQp6WT943V2XhcAD-4" value="aplicaciones" style="whiteSpace=wrap;html=1;align=center;" vertex="1" parent="1">
          <mxGeometry x="40" y="220" width="100" height="40" as="geometry" />
        </mxCell>
        <mxCell id="w-iIbQp6WT943V2XhcAD-5" value="taller" style="whiteSpace=wrap;html=1;align=center;" vertex="1" parent="1">
          <mxGeometry x="40" y="270" width="100" height="40" as="geometry" />
        </mxCell>
        <mxCell id="w-iIbQp6WT943V2XhcAD-6" value="escuela" style="whiteSpace=wrap;html=1;align=center;" vertex="1" parent="1">
          <mxGeometry x="40" y="320" width="100" height="40" as="geometry" />
        </mxCell>
        <mxCell id="w-iIbQp6WT943V2XhcAD-7" value="servidor" style="whiteSpace=wrap;html=1;align=center;" vertex="1" parent="1">
          <mxGeometry x="40" y="370" width="100" height="40" as="geometry" />
        </mxCell>
      </root>
    </mxGraphModel>
  </diagram>
</mxfile>
